<svg width="200" height="200" xmlns="http://www.w3.org/2000/svg">
 <!-- Created with Method Draw - http://github.com/duopixel/Method-Draw/ -->
 <g>
  <title>background</title>
  <rect fill="#7b00ff" id="canvas_background" height="202" width="202" y="-1" x="-1"/>
  <g display="none" overflow="visible" y="0" x="0" height="100%" width="100%" id="canvasGrid">
   <rect fill="url(#gridpattern)" stroke-width="0" y="0" x="0" height="100%" width="100%"/>
  </g>
 </g>
 <g>
  <title>Layer 1</title>
  <path d="m25.5,185.4375c-1,-1 -1,-2 -1,-3c0,-1 -0.458803,-2.693436 -1,-4c-0.382683,-0.923874 0,-2 0,-3c0,-1 0,-3 0,-4c0,-2 -1,-2 -1,-3c0,-2 -0.486258,-2.823746 -1,-5c-0.229753,-0.973251 0,-3 0,-5c0,-1 0,-2 0,-4c0,-1 -1,-4 -1,-6c0,-2 0,-3 0,-4c0,-2 0,-4 0,-5c0,-2 0,-4 0,-6c0,-1 0,-3 0,-4c0,-2 0,-4 0,-5c0,-3 0,-4 0,-6c0,-2 0,-4 0,-6c0,-1 0,-3 0,-5c0,-1 0,-4 0,-5c0,-2 0,-3 0,-5c0,-2 -0.765368,-4.152245 0,-6c0.541197,-1.306564 1,-3 1,-5c0,-1 1,-3 1,-4c0,-2 0.49346,-2.878555 1,-6c0.320364,-1.974174 0.49346,-2.878555 1,-6c0.160183,-0.987091 0.770247,-3.026749 1,-4c0.513742,-2.176254 1.292892,-4.292892 2,-5c0.707108,-0.707108 1,-2 1,-3c0,-1 0.617317,-2.076122 1,-3c0.541197,-1.306564 1,-2 2,-3c1,-1 0.292892,-2.292892 1,-3c0.707108,-0.707108 0.693436,-1.458805 2,-2c0.923878,-0.382683 0.47427,-1.149349 1,-2c1.175571,-1.902115 2.076122,-1.617317 3,-2c1.306564,-0.541195 2,-2 3,-3c1,-1 2.292892,-1.292892 3,-2c0.707108,-0.707108 2,-2 3,-3c1,-1 1.292892,-1.292892 2,-2c0.707108,-0.707108 1.292892,-0.292892 2,-1c0.707108,-0.707108 1.292892,-0.292892 2,-1c0.707108,-0.707108 1.076122,-0.617317 2,-1c1.306564,-0.541197 1,-2 2,-2c1,0 1.693436,-0.458803 3,-1c0.923878,-0.382683 1.292892,-1.292892 2,-2c0.707108,-0.707108 3.076118,0.382683 4,0c1.306564,-0.541197 1.693436,-1.458803 3,-2c0.923882,-0.382683 2,-1 4,-1c1,0 2,0 3,0c1,0 1,-1 3,-1c1,0 2.152245,0.765368 4,0c1.306564,-0.541197 2,-1 3,-1c3,0 4,0 6,0c2,0 5,0 7,0c1,0 3,0 5,0c2,0 3,0 6,0c2,0 4.014984,0.755634 6,1c4.092216,0.503775 6.228363,-0.14805 9,1c1.306564,0.541197 3.823746,1.486258 6,2c1.946503,0.459505 4,1 6,1c2,0 3.823746,0.486258 6,1c1.946503,0.459505 5.878555,1.49346 9,2c2.961258,0.480547 4.693436,0.458803 6,1c0.923874,0.382683 2.292892,0.292892 3,1c0.707108,0.707108 1.693436,0.458803 3,1c0.923874,0.382683 2.292892,-0.707108 3,0c0.707108,0.707108 -0.306564,2.458805 1,3c0.923874,0.382683 1.292892,0.292892 2,1c0.707108,0.707108 0.292892,1.292892 1,2c0.707108,0.707108 1,1 1,2c0,1 1,1 1,2c0,1 0.61731,3.076122 1,4c0.541199,1.306564 0.292892,3.292892 1,4c0.707108,0.707108 1,3 1,4c0,2 0.486252,2.82375 1,5c0.459503,1.946499 0.458801,2.693436 1,4c0.765366,1.847755 0,3 0,4c0,1 0.486252,1.823746 1,4c0.229752,0.973251 0,2 0,3c0,3 0,4 0,5c0,2 0,4 0,5c0,1 0,2 0,4c0,1 0,2 0,4c0,1 0,3 0,5c0,1 0,2 0,4c0,1 0,3 0,4c0,2 0,3 0,4c0,1 0,2 0,4c0,1 0,3 0,4c0,1 0,2 0,3c0,1 0,2 0,3c0,1 0,2 0,4c0,1 0,2 0,4c0,1 0,2 0,3c0,1 0,2 0,3c0,1 0,2 0,3c0,2 0,3 0,4c0,1 0,2 -1,2c-1,0 -1.292892,0.292892 -2,1c-0.707108,0.707108 -0.693436,1.458801 -2,2c-0.923874,0.38269 -2.292892,-0.707108 -3,0c-0.707108,0.707108 -1,1 -2,1c-1,0 -1.292892,0.292892 -2,1c-0.707108,0.707108 -3,0 -4,0c-1,0 -2,0 -3,0c-2,0 -3,0 -4,0c-1,0 -3,0 -4,0c-2,0 -2.693436,-0.458801 -4,-1c-1.847763,-0.765366 -3,-1 -4,-1c-1,0 -3,0 -4,0c-1,0 -1.693436,-0.458801 -3,-1c-1.847763,-0.765366 -2.693436,-0.458801 -4,-1c-1.847763,-0.765366 -2.693436,-0.458801 -4,-1c-0.923874,-0.38269 -2,0 -3,0c-1,0 -4.026749,0.229752 -5,0c-2.176254,-0.513748 -4.693436,-1.458801 -6,-2c-0.923882,-0.38269 -2,0 -3,0c-2,0 -3,0 -4,0c-1,0 -4,0 -5,0c-2,0 -3,0 -4,0c-1,0 -2,0 -3,0c-1,0 -3,0 -4,0c-1,0 -2.292892,0.292892 -3,1c-1.414215,1.414215 -2.292892,0.292892 -3,1c-1.414215,1.414215 -3,0 -4,0c-2,0 -3,1 -4,1c-1,0 -3,1 -4,1c-1,0 -1.693436,0.458801 -3,1c-0.923882,0.38269 -2,0 -3,0c-1,0 -2,1 -3,1c-1,0 -2.292892,0.292892 -3,1c-0.707108,0.707108 -1,1 -2,1c-1,0 -0.292892,1.292892 -1,2c-0.707108,0.707108 -2.292892,0.292892 -3,1c-0.707108,0.707108 -0.292892,2.292892 -1,3c-1.414215,1.414215 -2,1 -2,2c0,1 -1.770248,2.026749 -2,3c-0.513744,2.176254 -1.292892,3.292892 -2,4c-0.707108,0.707108 -2.458805,2.693436 -3,4c-0.382683,0.923874 -0.292892,1.292892 -1,2c-0.707108,0.707108 -0.292892,2.292892 -1,3c-0.707108,0.707108 -1.458805,0.693436 -2,2c-0.382683,0.923874 -1,1 -1,2c0,1 0,2 -1,2c-1,0 -0.292892,1.292892 -1,2c-0.707108,0.707108 -0.292892,1.292892 -1,2c-0.707108,0.707108 -1.292892,0.292892 -2,1c-0.707108,0.707108 -1,1 -2,1c-1,0 -2,0 -2,-1c0,-1 -1.292892,-0.292892 -2,-1c-0.707108,-0.707108 -1,-1 -1,-2c0,-1 -1,-1 -1,-2l-1,0l-1,0" id="svg_2" stroke-width="10" stroke="#fff" fill="none"/>
  <path d="m71.5,109.4375c0,0 0,-1 0,-2c0,-1 0,-2 0,-3c0,-1 0,-2 0,-4c0,-1 0,-3 0,-7c0,-2 0,-5 0,-10c0,-1 0,-2 0,-4c0,-1 0,-2 0,-3c0,-1 0,-3 0,-5c0,-1 0,-2 0,-3c0,-1 0,-2 0,-3c0,-1 0,-2 0,-3l0,-1" id="svg_3" stroke-width="10" stroke="#fff" fill="none"/>
  <path d="m128.5,108.4375c0,-1 0,-2 0,-3c0,-1 0,-2 0,-3c0,-1 0,-2 0,-3c0,-1 0,-2 0,-3c0,-1 0,-2 0,-3c0,-1 0,-2 0,-3c0,-1 0,-2 0,-3c0,-2 0,-4 0,-5c0,-1 0,-2 0,-3c0,-1 0,-2 0,-3c0,-1 0,-3 0,-4c0,-1 0,-2 0,-3c0,-1 0,-2 0,-3c0,-1 0,-2 0,-3c0,-1 0,-2 0,-3c0,-1 0,-2 0,-3l0,-1l0,-1" id="svg_4" stroke-width="10" stroke="#fff" fill="none"/>
 </g>
</svg>